<?xml version="1.0" standalone="no"?>
<!DOCTYPE svg PUBLIC "-//W3C//DTD SVG 20010904//EN"
 "http://www.w3.org/TR/2001/REC-SVG-20010904/DTD/svg10.dtd">
<svg version="1.0" xmlns="http://www.w3.org/2000/svg"
 width="963.000000pt" height="869.000000pt" viewBox="0 0 963.000000 869.000000"
 preserveAspectRatio="xMidYMid meet">

<g transform="translate(0.000000,869.000000) scale(0.100000,-0.100000)"
fill="#F1FAEE" stroke="none">
<path d="M6085 8179 c-901 -57 -1807 -354 -2690 -882 -465 -278 -920 -624
-1306 -994 -432 -414 -729 -769 -1046 -1250 -304 -461 -500 -846 -582 -1143
-25 -94 -61 -290 -52 -290 15 0 157 162 258 295 87 115 217 293 303 415 290
411 519 680 886 1040 1103 1080 2434 1778 3699 1939 709 91 1420 6 1905 -225
313 -150 562 -391 680 -662 192 -435 157 -987 -102 -1632 -258 -641 -977
-1743 -1582 -2425 -203 -228 -386 -417 -400 -412 -35 11 -128 262 -190 512
-76 304 -144 675 -261 1415 -151 956 -217 1307 -287 1520 -58 181 -181 373
-288 454 -87 65 -157 89 -260 90 -153 2 -280 -60 -425 -208 -167 -169 -301
-420 -498 -933 -382 -995 -933 -3023 -1081 -3984 -26 -167 -30 -237 -18 -319
l7 -45 48 63 c77 100 146 260 387 897 39 105 89 235 110 290 22 55 86 224 144
375 522 1371 863 2204 1113 2720 59 121 87 170 93 160 21 -40 76 -525 125
-1105 99 -1179 188 -1716 360 -2161 88 -228 186 -384 328 -521 285 -276 604
-315 992 -120 197 98 337 208 618 486 460 454 851 921 1234 1476 572 829 887
1610 962 2389 14 141 14 438 0 586 -52 565 -285 1067 -664 1432 -437 420
-1071 676 -1860 748 -153 14 -504 19 -660 9z"/>
</g>
</svg>
