<?xml version="1.0" standalone="no"?>
<!DOCTYPE svg PUBLIC "-//W3C//DTD SVG 20010904//EN"
 "http://www.w3.org/TR/2001/REC-SVG-20010904/DTD/svg10.dtd">
<svg version="1.0" xmlns="http://www.w3.org/2000/svg"
 width="963.000000pt" height="869.000000pt" viewBox="0 0 963.000000 869.000000"
 preserveAspectRatio="xMidYMid meet">

<g transform="translate(0.000000,869.000000) scale(0.100000,-0.100000)"
fill="#000000" stroke="none">
<path d="M6313 8183 c26 -2 68 -2 95 0 26 2 4 3 -48 3 -52 0 -74 -1 -47 -3z"/>
<path d="M6058 8173 c12 -2 32 -2 45 0 12 2 2 4 -23 4 -25 0 -35 -2 -22 -4z"/>
<path d="M6130 8171 c0 -7 -28 -11 -79 -11 -44 0 -83 -4 -86 -10 -3 -5 -44
-10 -90 -10 -47 0 -104 -4 -127 -10 -70 -15 -219 -35 -270 -35 -25 0 -42 -2
-37 -6 20 -12 -51 -31 -100 -27 -34 2 -52 -1 -56 -9 -2 -7 -17 -13 -33 -13
-15 0 -33 -5 -40 -12 -9 -9 -15 -9 -24 0 -7 7 -19 12 -28 11 -11 0 -10 -3 5
-10 15 -7 10 -8 -20 -5 -22 2 -34 2 -27 -1 20 -8 3 -23 -28 -23 -16 0 -32 -4
-35 -10 -3 -5 -18 -10 -33 -10 -15 0 -37 -6 -48 -14 -11 -8 -26 -11 -33 -7 -9
6 -5 10 14 15 15 4 25 9 23 12 -10 9 -58 -16 -58 -31 0 -17 -16 -20 -25 -5 -3
6 -14 10 -23 9 -15 0 -14 -1 2 -8 15 -6 10 -10 -25 -21 -24 -7 -48 -17 -54
-22 -5 -4 -21 -8 -37 -8 -26 0 -41 -5 -113 -36 -16 -7 -43 -16 -60 -20 -16 -4
-35 -11 -42 -16 -7 -5 -13 -4 -17 4 -5 11 -7 10 -12 0 -3 -8 -26 -22 -51 -33
-49 -21 -77 -25 -53 -8 12 9 12 10 -3 5 -10 -3 -21 -6 -24 -6 -3 0 0 -7 7 -15
11 -13 8 -15 -26 -10 -22 2 -33 1 -26 -3 14 -10 -47 -42 -78 -42 -11 0 -20 -5
-20 -11 0 -6 -10 -9 -22 -6 -13 3 -32 1 -43 -4 -16 -7 -14 -8 10 -4 25 4 27 3
12 -6 -10 -6 -27 -9 -37 -6 -11 3 -19 2 -18 -2 2 -19 -3 -24 -12 -11 -8 13
-10 13 -10 -1 0 -9 -12 -21 -26 -27 -16 -8 -22 -17 -18 -25 6 -9 4 -9 -8 1
-12 10 -18 10 -23 2 -4 -7 -18 -10 -31 -7 -14 2 -27 0 -30 -4 -3 -5 -15 -9
-27 -10 -20 -1 -20 -2 3 -9 25 -8 25 -8 -5 -10 -16 -1 -35 -2 -42 -1 -6 1 -14
-3 -18 -9 -3 -6 0 -7 9 -4 9 3 16 1 16 -5 0 -6 -5 -11 -11 -11 -6 0 -33 -11
-61 -25 -27 -14 -61 -25 -74 -25 -17 0 -23 -4 -18 -12 5 -8 1 -9 -12 -4 -15 6
-17 5 -6 -5 18 -20 15 -26 -15 -26 -14 0 -32 -9 -40 -19 -7 -10 -13 -15 -13
-11 0 4 -12 2 -26 -3 -16 -7 -23 -7 -19 0 3 6 -1 7 -9 4 -9 -3 -14 -9 -11 -13
5 -10 -43 -46 -74 -56 -18 -5 -22 -4 -16 5 4 7 -6 5 -23 -6 -17 -10 -29 -20
-27 -22 3 -3 11 1 20 8 9 7 18 11 21 8 8 -8 -65 -48 -92 -50 -15 -2 -23 -7
-20 -15 3 -7 0 -13 -6 -13 -6 0 -26 -11 -45 -26 -18 -14 -33 -20 -33 -15 0 6
13 17 29 26 17 8 33 20 36 25 4 6 -16 -3 -44 -20 -28 -18 -51 -34 -51 -36 0
-3 6 -2 13 1 6 4 -6 -10 -27 -29 -43 -39 -71 -49 -40 -14 l19 21 -27 -18 c-16
-9 -28 -22 -28 -29 0 -9 -29 -32 -87 -69 -7 -4 -13 -4 -13 2 0 5 9 13 21 16
11 4 19 9 16 11 -10 10 -39 -10 -48 -33 -7 -19 -14 -23 -30 -18 -12 4 -19 3
-16 -2 3 -4 -2 -17 -10 -28 -10 -13 -17 -16 -20 -8 -3 10 -7 10 -18 0 -7 -7
-10 -16 -7 -21 3 -5 -2 -7 -10 -3 -9 3 -24 -1 -35 -9 -17 -14 -16 -14 5 -4 12
6 22 7 22 2 0 -5 -11 -14 -25 -20 -32 -15 -38 -15 -29 0 4 7 3 8 -5 4 -6 -4
-9 -11 -6 -16 7 -12 -30 -32 -40 -22 -5 4 -5 1 0 -7 4 -8 2 -17 -6 -22 -20
-12 -37 -11 -19 2 13 9 13 10 0 6 -8 -2 -15 -10 -15 -18 0 -8 -9 -14 -19 -14
-10 0 -22 -10 -27 -23 -5 -12 -14 -22 -21 -22 -7 0 -19 -9 -26 -21 -7 -11 -19
-18 -27 -15 -9 3 -12 0 -9 -8 5 -14 -58 -59 -82 -59 -7 0 -10 -5 -7 -10 4 -6
0 -8 -9 -4 -10 3 -15 0 -14 -11 1 -11 -6 -16 -17 -15 -10 0 -16 -2 -13 -5 7
-7 -24 -42 -37 -42 -5 0 -3 8 4 18 13 15 12 16 -3 3 -10 -7 -16 -17 -13 -21 5
-9 -60 -70 -75 -70 -6 0 -8 6 -4 13 4 6 -5 1 -19 -12 -15 -13 -25 -27 -23 -30
6 -9 -15 -33 -61 -69 -24 -19 -43 -29 -43 -22 0 6 -5 8 -11 4 -8 -4 -7 -9 2
-15 11 -7 10 -11 -6 -23 -27 -21 -40 -20 -24 2 13 15 12 16 -3 3 -10 -7 -16
-16 -14 -20 6 -9 -2 -20 -37 -50 -35 -32 -35 -20 0 14 15 14 24 25 20 25 -15
0 -107 -93 -101 -102 9 -14 -57 -78 -80 -78 -16 0 -17 -3 -8 -9 11 -7 10 -9
-3 -15 -9 -3 -13 -11 -9 -17 4 -7 3 -9 -4 -5 -6 3 -13 2 -17 -4 -4 -6 -11 -7
-17 -4 -7 4 -8 2 -4 -4 4 -6 -5 -18 -21 -26 -15 -8 -24 -15 -18 -16 5 0 0 -7
-12 -15 -13 -9 -20 -22 -17 -30 4 -10 0 -15 -11 -15 -10 0 -13 5 -9 12 4 7 3
8 -5 4 -6 -4 -9 -12 -5 -17 3 -6 -22 -38 -56 -72 -34 -34 -66 -72 -71 -84 -10
-27 -31 -32 -22 -5 5 13 0 11 -20 -7 -15 -13 -24 -28 -21 -32 3 -5 -2 -19 -10
-31 -10 -13 -16 -17 -16 -9 0 9 -7 6 -20 -9 -11 -12 -17 -27 -14 -32 3 -5 -6
-21 -20 -36 -29 -31 -49 -53 -114 -134 -26 -32 -51 -58 -56 -58 -5 0 -2 8 5
18 13 15 12 16 -4 3 -9 -8 -15 -16 -13 -19 3 -2 -5 -13 -17 -24 -12 -11 -17
-17 -10 -14 18 10 -13 -48 -39 -70 -22 -19 -22 -19 1 16 23 34 22 34 -13 -5
-36 -40 -49 -68 -21 -45 25 21 17 -5 -10 -30 -14 -13 -25 -29 -25 -37 0 -7 -4
-14 -10 -14 -5 -1 -15 -2 -21 -3 -6 0 -18 -12 -27 -26 l-14 -25 21 25 c11 14
21 20 21 13 0 -7 -12 -25 -26 -40 -14 -15 -23 -22 -19 -15 3 6 1 12 -4 12 -6
0 -11 -3 -12 -7 0 -5 -2 -18 -3 -31 -2 -13 -11 -31 -21 -40 -16 -16 -17 -16
-5 8 10 20 10 23 0 13 -7 -7 -14 -23 -15 -35 -1 -13 -7 -23 -12 -23 -6 0 -15
-3 -19 -7 -4 -5 -2 -8 4 -8 6 0 5 -12 -5 -32 -18 -35 -33 -49 -44 -42 -4 2
-11 -1 -15 -7 -4 -8 -3 -9 4 -5 18 11 14 -3 -10 -37 -13 -18 -22 -34 -22 -37
2 -9 -28 -51 -33 -46 -2 2 6 21 19 43 36 56 43 70 31 58 -12 -11 -143 -214
-143 -220 0 -2 7 -2 16 2 14 5 15 3 5 -15 -6 -11 -15 -24 -21 -27 -5 -3 -17
-21 -26 -40 -9 -19 -21 -35 -26 -35 -5 0 -6 6 -3 13 4 6 -1 3 -9 -7 -9 -11
-16 -25 -16 -30 0 -6 5 -4 11 4 8 12 10 11 7 -5 -2 -11 -8 -20 -13 -20 -20 0
-34 -16 -28 -32 4 -10 2 -14 -4 -10 -10 6 -59 -70 -50 -79 2 -3 12 11 21 31 9
19 22 35 27 35 6 0 2 -12 -8 -27 -10 -16 -25 -40 -33 -56 -10 -20 -16 -24 -22
-15 -4 7 -8 9 -9 3 -3 -44 -12 -72 -43 -138 -20 -41 -36 -82 -36 -90 0 -8 -6
-17 -14 -20 -13 -5 -13 -1 0 28 19 45 17 57 -3 21 -27 -50 -45 -98 -34 -91 6
3 11 -1 11 -9 0 -8 -4 -18 -10 -21 -5 -3 -10 -17 -10 -29 0 -13 -7 -29 -15
-36 -19 -16 -19 -11 0 33 22 52 17 60 -5 9 -11 -23 -16 -50 -13 -59 4 -9 2
-14 -3 -10 -6 3 -8 -9 -6 -30 4 -31 2 -35 -12 -30 -10 4 -15 3 -11 -3 3 -6 2
-10 -4 -10 -5 0 -9 -10 -9 -22 3 -57 -2 -90 -14 -85 -9 3 -13 -8 -14 -37 -1
-22 -7 -66 -14 -96 -6 -30 -9 -70 -6 -88 3 -19 1 -30 -5 -27 -5 4 -9 0 -10 -7
-1 -7 -5 -2 -9 12 -7 22 -8 20 -9 -14 l-1 -40 35 34 c34 33 50 65 20 40 -9 -7
-15 -8 -15 -2 0 14 60 63 69 57 5 -2 21 12 38 33 36 45 53 77 23 42 -27 -32
-14 -6 25 48 17 23 34 42 38 42 5 0 5 -6 1 -12 -5 -9 -2 -9 9 1 9 7 17 19 17
25 0 6 -5 4 -10 -4 -5 -8 -10 -12 -10 -7 0 14 45 77 59 82 12 5 12 3 -1 -12
-18 -22 -31 -43 -25 -43 8 0 108 142 103 147 -2 3 -13 -8 -23 -24 -24 -38 -43
-57 -43 -44 0 6 15 28 33 48 19 21 50 63 70 93 71 107 109 156 104 132 -5 -19
-3 -21 9 -11 8 6 14 21 14 33 0 11 5 28 11 36 9 12 10 12 5 -4 -6 -16 -4 -17
9 -6 10 9 12 17 6 23 -11 11 47 90 60 82 4 -3 11 0 15 6 4 8 3 9 -4 5 -7 -4
-12 -5 -12 -2 0 11 60 93 81 111 18 15 20 16 10 3 -7 -10 -11 -18 -8 -18 2 0
17 17 33 38 21 28 22 32 6 18 -33 -29 -26 -9 10 34 18 20 38 45 45 56 12 19
12 19 6 0 -4 -13 -3 -17 5 -12 7 4 12 16 12 26 0 10 27 52 59 92 58 71 123
138 106 108 -8 -13 -6 -13 8 -2 9 8 15 19 14 25 -1 6 3 11 10 12 6 0 15 4 20
9 5 5 3 6 -5 2 -6 -4 -12 -2 -12 3 0 15 70 91 83 91 6 0 -2 -15 -18 -32 -16
-18 -3 -7 30 26 33 32 55 60 49 63 -13 5 63 93 80 93 6 0 -6 -16 -26 -35 -21
-18 -38 -38 -38 -42 0 -4 37 29 81 74 44 45 78 86 75 92 -8 12 118 138 147
147 26 8 57 33 57 47 0 5 -9 -1 -20 -14 -10 -13 -19 -19 -20 -13 0 6 12 21 27
35 14 13 23 18 19 12 -4 -7 -2 -13 4 -13 6 0 15 10 20 23 5 12 9 18 10 12 0
-5 6 1 13 14 6 14 19 26 27 28 10 3 8 -1 -4 -11 -11 -9 -15 -16 -10 -16 17 0
33 22 27 38 -4 10 -2 13 5 8 7 -4 12 -2 12 4 0 14 40 67 40 54 0 -5 7 0 15 10
8 11 15 15 15 10 0 -6 -5 -15 -12 -22 -6 -6 -9 -14 -7 -17 3 -2 21 12 40 32
19 21 23 29 10 18 -16 -14 -22 -15 -19 -6 2 8 13 19 23 25 10 6 30 23 43 39
13 15 29 27 35 27 6 0 0 -12 -14 -27 -16 -18 -9 -15 21 10 25 21 113 92 195
159 83 67 152 125 153 130 2 4 8 8 14 8 5 0 25 12 44 27 26 20 32 28 22 35 -9
6 -5 7 10 3 15 -4 24 -1 28 9 3 9 11 16 16 16 6 0 63 37 127 82 107 75 156
112 124 94 -7 -4 -13 -5 -13 -2 0 3 10 10 21 17 16 8 20 8 14 -1 -6 -9 -2 -9
14 0 12 6 26 21 31 33 5 12 9 16 9 9 1 -7 6 -10 11 -7 6 4 8 10 5 15 -3 5 0
12 6 16 8 4 9 3 5 -4 -4 -7 -2 -12 3 -12 6 0 11 7 11 15 0 8 5 15 11 15 5 0 7
-4 4 -10 -3 -5 17 4 44 22 28 17 51 35 51 40 0 5 4 7 9 4 4 -3 17 1 27 9 16
13 17 14 2 9 -33 -12 -18 6 22 25 22 11 37 14 33 9 -12 -21 20 5 50 39 16 18
36 33 45 33 8 0 23 7 33 16 9 8 29 16 45 18 15 2 30 8 32 15 2 6 8 9 12 6 9
-6 113 46 106 52 -2 2 -16 -3 -32 -11 -32 -17 -49 -11 -19 7 36 21 86 37 79
25 -5 -7 -2 -8 7 -2 8 4 20 9 27 10 8 2 17 6 20 10 4 4 -1 4 -10 1 -25 -9 -22
-2 7 17 22 15 24 15 18 0 -5 -14 -2 -14 28 1 38 20 53 31 27 22 -9 -3 -19 -3
-22 0 -9 10 64 32 82 26 11 -5 13 -3 7 7 -6 10 -4 12 9 7 10 -4 15 -3 11 3 -3
5 7 15 22 22 15 7 39 20 52 30 27 21 51 13 24 -8 -16 -13 -15 -13 9 -3 15 7
25 16 22 20 -5 8 24 26 89 52 20 9 37 12 37 6 0 -5 -6 -9 -14 -9 -8 0 -18 -5
-21 -11 -4 -5 10 -3 30 5 21 9 39 16 41 16 2 0 3 5 2 11 -4 14 99 52 119 45 9
-4 11 -1 7 6 -5 7 0 9 14 6 12 -4 20 -2 17 3 -3 4 8 15 24 24 38 19 52 19 27
0 -26 -19 -7 -19 20 0 12 8 25 11 29 7 3 -4 5 -1 3 7 -2 8 8 17 25 22 15 4 25
4 22 -1 -3 -4 4 -6 16 -3 16 5 18 8 7 15 -9 6 -3 8 17 5 17 -2 24 -2 18 0 -7
3 -13 8 -13 12 0 11 80 29 86 20 3 -5 0 -9 -7 -9 -7 0 -10 -2 -8 -5 8 -7 49 7
44 15 -3 4 2 10 10 14 8 3 15 0 15 -7 0 -7 5 -4 11 6 8 14 18 17 37 13 18 -5
22 -4 13 2 -20 14 -1 21 62 24 31 1 52 5 46 9 -14 8 31 24 111 40 36 6 73 16
83 21 24 12 142 39 192 43 22 2 53 8 68 14 16 6 47 11 71 11 23 0 46 4 52 9
11 11 90 20 229 27 55 2 107 8 115 12 20 9 119 9 113 0 -2 -5 25 -8 61 -8 36
0 68 5 71 10 9 14 465 12 465 -2 0 -6 -7 -8 -15 -5 -8 4 -17 2 -19 -2 -3 -5
37 -6 89 -3 93 5 141 -2 118 -16 -7 -4 18 -8 55 -9 111 -3 212 -14 212 -24 0
-5 23 -9 50 -9 28 0 50 -4 50 -9 0 -5 12 -11 28 -13 15 -2 26 -8 25 -14 -1 -8
6 -10 19 -6 14 3 19 1 14 -6 -5 -8 2 -12 21 -11 25 0 26 1 8 9 -11 5 -15 9 -9
9 7 1 25 -6 40 -14 16 -8 22 -15 14 -16 -10 0 -8 -3 5 -9 11 -4 30 -6 42 -3
13 3 31 2 40 -1 15 -6 15 -8 3 -16 -12 -8 -11 -10 5 -11 11 -1 28 0 39 1 10 1
15 -3 12 -9 -4 -6 5 -9 21 -8 17 1 27 -3 26 -9 -1 -7 5 -10 15 -7 10 2 38 -5
62 -17 42 -19 31 -22 -15 -5 -38 15 -10 -3 55 -35 57 -27 62 -29 40 -8 -14 13
-21 20 -16 16 6 -5 15 -8 22 -8 16 0 95 -52 89 -59 -3 -2 -11 1 -17 7 -7 7
-17 12 -22 12 -6 0 2 -9 19 -20 21 -14 31 -16 37 -8 5 9 13 7 27 -6 11 -10 18
-22 16 -27 -3 -4 0 -11 6 -15 8 -5 9 -3 4 6 -6 10 -4 12 9 7 10 -4 20 -7 22
-7 2 0 4 -7 4 -17 0 -9 3 -13 6 -10 9 8 39 -8 75 -41 22 -19 26 -28 17 -35 -9
-6 -6 -7 10 -4 23 5 48 -23 34 -38 -4 -5 0 -6 9 -2 18 6 69 -40 69 -62 0 -17
46 -72 54 -64 3 4 6 -1 6 -10 0 -10 6 -16 13 -15 6 2 11 -5 11 -14 -1 -11 4
-14 14 -10 11 4 14 1 9 -11 -6 -17 51 -122 61 -112 3 3 0 11 -6 17 -14 14 -16
32 -2 23 16 -10 42 -74 36 -90 -3 -8 0 -15 7 -15 7 0 18 -15 26 -32 7 -18 27
-61 44 -95 24 -51 29 -70 24 -109 -3 -27 -1 -41 4 -33 12 19 23 -13 17 -51 -3
-16 0 -31 5 -33 5 -1 11 -32 14 -67 2 -36 9 -81 14 -100 12 -47 11 -175 -1
-241 -6 -30 -13 -81 -15 -114 -3 -33 -9 -96 -15 -140 -6 -44 -13 -100 -16
-125 -4 -25 -13 -54 -20 -65 -15 -21 -19 -4 -5 23 5 9 11 44 14 77 6 57 5 56
-13 -25 -13 -56 -16 -88 -10 -94 14 -14 12 -29 -2 -23 -10 3 -12 -7 -9 -39 2
-29 -1 -44 -9 -44 -6 0 -10 -8 -8 -17 5 -31 -47 -153 -65 -153 -8 0 -7 -3 2
-9 11 -7 11 -14 -3 -41 -9 -18 -16 -39 -16 -46 0 -7 -14 -41 -31 -74 -17 -34
-28 -67 -25 -75 3 -8 -1 -18 -7 -22 -11 -7 -47 -72 -47 -86 0 -2 -7 -22 -16
-42 -10 -25 -18 -34 -23 -26 -5 8 -11 3 -19 -14 -7 -15 -8 -24 -2 -20 14 9 12
-7 -6 -43 -8 -18 -23 -32 -32 -33 -9 0 -12 -3 -6 -5 14 -6 -10 -74 -42 -119
-12 -17 -25 -40 -28 -52 -7 -23 -26 -32 -26 -13 0 6 5 10 10 10 6 0 10 8 10
18 -1 15 -2 15 -16 -3 -8 -11 -12 -25 -10 -32 3 -7 -3 -17 -12 -22 -11 -7 -12
-11 -4 -11 14 0 -35 -98 -67 -135 -10 -11 -24 -35 -31 -52 -7 -18 -17 -33 -22
-33 -5 0 -6 4 -3 10 3 6 4 10 1 10 -3 0 -10 -10 -17 -21 -8 -16 -8 -20 1 -14
6 4 -3 -22 -22 -59 -18 -36 -39 -68 -46 -70 -9 -4 -10 -1 -2 14 15 29 5 24
-15 -6 -9 -15 -12 -23 -6 -20 6 4 11 4 11 0 0 -13 -44 -84 -52 -84 -5 0 -6 5
-2 12 4 7 3 8 -4 4 -6 -4 -9 -13 -6 -20 7 -17 -18 -67 -43 -87 -16 -13 -17
-13 -4 4 8 9 12 20 9 22 -6 7 -68 -92 -68 -108 0 -7 8 2 16 20 15 30 44 52 44
34 0 -5 -7 -12 -15 -15 -9 -3 -21 -19 -26 -36 -10 -27 -20 -35 -41 -31 -4 0
-5 -6 -2 -14 4 -8 2 -15 -3 -15 -5 0 -10 -6 -10 -12 0 -21 -106 -170 -112
-159 -4 6 -12 1 -20 -11 -11 -18 -11 -20 4 -14 11 4 15 2 12 -6 -2 -7 -11 -13
-20 -13 -9 0 -22 -7 -29 -15 -11 -12 -11 -12 5 -1 9 7 17 9 17 3 0 -11 -22
-31 -32 -29 -3 1 -10 -2 -15 -7 -5 -5 -2 -6 6 -1 9 5 12 3 9 -6 -3 -8 -10 -14
-17 -14 -14 0 -32 -26 -25 -37 3 -4 0 -8 -5 -8 -6 0 -10 -3 -9 -7 3 -15 -22
-63 -32 -63 -6 0 -8 6 -4 13 4 6 3 9 -1 4 -5 -4 -10 -17 -12 -29 -4 -27 -51
-90 -63 -83 -4 2 -14 -3 -21 -13 -13 -15 -12 -16 4 -3 9 7 17 9 17 3 0 -12
-25 -34 -32 -27 -3 3 -11 -1 -18 -10 -7 -9 -8 -15 -2 -15 6 0 13 6 15 13 3 6
6 8 6 2 0 -5 -13 -26 -30 -45 -29 -33 -29 -33 -13 -5 l16 30 -21 -25 c-11 -14
-21 -34 -21 -46 0 -23 -36 -61 -47 -51 -3 4 -2 7 4 7 6 0 14 8 17 17 6 15 5
15 -13 -1 -11 -10 -17 -24 -15 -31 3 -7 0 -16 -7 -21 -8 -5 -10 -3 -4 6 5 8 4
11 -3 6 -6 -4 -9 -13 -5 -21 3 -9 -1 -15 -10 -15 -8 0 -21 -8 -28 -17 -11 -15
-11 -16 1 -6 26 24 32 13 8 -15 -13 -16 -25 -25 -29 -21 -3 5 -22 -11 -42 -36
-21 -25 -36 -45 -34 -45 8 0 44 36 55 55 6 11 12 14 12 7 0 -7 -21 -34 -46
-60 -26 -26 -44 -41 -40 -35 4 7 5 13 2 13 -3 0 -10 -10 -17 -21 -9 -17 -8
-20 3 -13 11 6 11 5 -1 -9 -7 -9 -17 -15 -21 -12 -4 2 -18 -7 -30 -20 -13 -14
-18 -25 -12 -25 7 0 12 5 12 12 0 6 3 8 6 5 9 -9 -16 -38 -27 -31 -5 3 -9 2
-8 -3 3 -19 -3 -30 -30 -61 -41 -44 -51 -41 -12 3 17 20 31 39 31 42 0 4 -17
-13 -37 -37 -21 -24 -37 -49 -35 -56 3 -14 -87 -116 -97 -109 -13 8 -62 -51
-56 -66 4 -10 -4 -20 -20 -29 -15 -8 -31 -22 -36 -32 -6 -10 -14 -16 -20 -13
-5 4 -9 -2 -9 -12 0 -20 -18 -43 -33 -43 -5 0 -4 8 3 18 7 9 -18 -14 -56 -53
-38 -38 -77 -76 -85 -83 -19 -15 -49 -6 -49 15 0 8 -5 11 -12 7 -7 -4 -8 -3
-4 4 9 16 -11 52 -29 52 -9 0 -15 9 -15 23 0 18 2 19 10 7 5 -8 10 -10 10 -5
0 6 -7 20 -15 31 -8 12 -11 24 -7 28 3 4 -1 4 -9 1 -11 -4 -18 1 -23 17 -9 34
-6 57 4 33 6 -13 9 -15 9 -5 1 20 -14 43 -25 38 -5 -1 -10 6 -13 17 -2 11 -8
23 -13 26 -7 4 -6 13 1 27 8 14 7 31 -4 63 -11 33 -13 36 -9 11 4 -22 2 -32
-7 -32 -7 0 -10 3 -7 6 3 3 0 29 -8 57 -15 58 -18 94 -4 62 7 -16 9 -17 9 -3
1 9 -6 21 -15 26 -19 11 -40 95 -25 100 6 2 11 8 11 13 0 6 -4 8 -9 4 -6 -3
-13 10 -17 30 -3 19 -10 35 -15 35 -12 0 -11 37 1 45 6 3 10 13 10 21 0 8 -5
12 -10 9 -13 -8 -30 38 -29 78 l1 32 8 -33 c4 -18 11 -36 14 -39 9 -9 -5 60
-15 71 -4 5 -5 16 -2 25 4 14 3 14 -6 1 -8 -12 -11 -12 -17 3 -3 9 -1 24 6 32
6 8 10 20 7 27 -3 8 -6 4 -7 -7 -2 -33 -30 43 -29 79 0 26 2 28 9 11 8 -18 9
-17 9 8 1 16 -3 26 -9 22 -14 -8 -23 39 -16 83 4 26 3 31 -4 17 -7 -17 -9 -15
-9 12 -1 17 -5 35 -11 38 -5 3 -10 18 -10 33 0 22 2 24 11 12 8 -11 9 -8 4 15
-3 17 -6 39 -7 50 0 11 -2 14 -5 8 -12 -31 -23 -8 -23 46 0 33 -4 63 -10 66
-5 3 -10 23 -9 43 0 30 2 33 9 17 8 -18 9 -18 9 -2 1 10 -7 29 -16 43 -16 25
-24 64 -38 179 -4 35 -3 44 4 30 7 -14 10 -15 10 -5 1 17 -18 50 -20 35 -3
-26 -17 46 -18 92 -1 28 -5 55 -11 58 -5 3 -10 28 -10 55 0 27 -5 61 -10 76
-8 19 -8 30 0 38 5 5 10 21 9 36 l-1 25 -9 -25 c-6 -18 -7 -9 -4 30 3 34 1 45
-3 30 -12 -40 -23 -8 -21 59 1 33 -2 66 -8 73 -15 19 -26 102 -26 188 0 44 -3
65 -7 50 -6 -22 -7 -21 -14 17 -4 23 -7 59 -5 80 3 56 -12 163 -23 163 -5 0
-7 4 -3 9 9 15 -6 91 -17 85 -6 -4 -8 5 -3 25 5 26 4 31 -12 32 -10 0 -13 3
-5 6 6 2 12 14 12 26 0 13 -3 17 -8 10 -4 -6 -8 14 -9 45 0 31 -6 58 -11 60
-6 2 -9 9 -6 16 8 21 -36 179 -54 194 -9 7 -11 10 -3 6 10 -5 12 1 6 27 -4 19
-11 36 -16 37 -5 2 -7 7 -4 12 3 4 -3 25 -12 46 -9 22 -18 45 -19 53 -2 8 -8
17 -14 21 -7 4 -11 10 -11 14 3 24 0 30 -10 16 -8 -12 -9 -12 -7 5 5 35 -74
181 -92 170 -5 -3 -7 0 -5 7 6 15 -39 60 -49 51 -3 -4 -6 3 -6 15 0 22 -52 66
-65 54 -5 -4 -5 -2 -1 5 8 14 -23 33 -42 26 -7 -3 -11 1 -10 9 2 7 -3 12 -9
10 -7 -1 -13 2 -13 7 0 5 -24 17 -52 27 -58 20 -224 26 -236 9 -4 -6 -16 -11
-27 -12 -31 -3 -115 -43 -115 -54 0 -6 -4 -8 -8 -5 -5 3 -18 -3 -28 -13 -11
-10 -25 -20 -31 -22 -51 -18 -229 -218 -219 -245 3 -9 2 -12 -5 -9 -11 8 -40
-25 -33 -37 3 -5 1 -8 -4 -8 -12 0 -45 -50 -45 -67 0 -7 -4 -13 -9 -13 -10 0
-78 -134 -78 -154 0 -8 -6 -21 -14 -28 -13 -14 -31 -59 -27 -67 2 -2 -1 -7 -6
-10 -14 -10 -83 -173 -77 -182 3 -5 1 -9 -4 -9 -10 0 -52 -108 -55 -140 -1
-10 -4 -17 -8 -14 -4 2 -10 -8 -15 -24 -4 -15 -8 -29 -9 -32 -1 -3 -9 -23 -19
-45 -10 -22 -19 -52 -20 -67 0 -14 -4 -24 -7 -22 -7 4 -81 -200 -83 -226 -1
-8 -5 -18 -11 -22 -5 -4 -9 -23 -9 -42 0 -20 -3 -31 -6 -26 -5 8 -34 -67 -45
-115 -1 -5 -7 -23 -13 -38 -15 -36 -15 -50 0 -41 7 4 8 3 4 -5 -4 -6 -11 -9
-15 -7 -9 6 -32 -64 -25 -76 3 -4 0 -8 -7 -8 -8 0 -8 -4 1 -16 11 -12 11 -15
-1 -12 -8 2 -15 -7 -17 -22 -2 -14 -6 -32 -9 -40 -3 -8 -5 -21 -4 -27 1 -7 -2
-13 -8 -13 -5 0 -14 -21 -20 -47 -14 -57 -15 -60 -30 -96 -6 -16 -9 -32 -6
-37 3 -5 1 -10 -4 -12 -13 -5 -63 -187 -55 -201 4 -7 3 -8 -1 -4 -10 9 -107
-311 -99 -324 3 -5 0 -9 -6 -9 -6 0 -10 -6 -9 -12 1 -7 0 -20 -4 -28 -15 -40
-35 -125 -31 -132 3 -4 0 -8 -7 -8 -6 0 -9 -8 -6 -20 3 -11 2 -20 -3 -20 -10
0 -40 -121 -33 -133 3 -5 1 -12 -5 -16 -9 -6 -55 -160 -66 -223 -2 -15 -7 -32
-10 -37 -9 -14 -39 -154 -39 -178 1 -13 -3 -21 -7 -18 -6 4 -28 -76 -36 -130
0 -5 -4 -17 -7 -25 -4 -8 -11 -35 -17 -60 -5 -25 -25 -110 -45 -190 -28 -110
-34 -149 -26 -162 14 -23 14 -25 -7 -30 -16 -5 -37 -74 -47 -158 -1 -8 -5 -22
-8 -30 -3 -8 -8 -28 -11 -45 -3 -16 -12 -57 -19 -90 -7 -33 -14 -62 -15 -65 0
-3 -3 -12 -5 -20 -18 -57 -37 -184 -32 -207 5 -23 4 -25 -5 -13 -10 12 -11 11
-7 -7 3 -13 0 -23 -5 -23 -7 0 -9 -16 -5 -40 3 -23 1 -38 -4 -34 -5 3 -10 -7
-11 -23 -3 -47 -4 -57 -11 -79 -4 -11 -9 -42 -12 -70 -3 -27 -12 -83 -20 -124
-16 -83 -20 -206 -7 -214 5 -3 6 -20 4 -38 -5 -30 -3 -32 12 -19 19 16 22 36
4 25 -8 -4 -10 -3 -5 2 5 5 13 9 18 9 16 0 69 69 64 83 -2 7 2 15 10 19 10 3
13 12 10 24 -4 13 -2 19 6 17 8 -2 30 38 55 100 24 56 40 102 36 102 -4 0 -1
4 5 8 7 4 14 17 16 27 2 11 11 35 20 53 10 18 15 37 12 42 -3 6 -1 10 4 10 6
0 11 8 11 18 0 10 4 22 9 28 17 16 61 146 54 157 -3 5 -2 7 3 4 5 -3 20 25 33
61 13 37 32 87 43 111 10 24 17 49 14 57 -3 7 0 16 5 20 15 9 83 179 93 229 1
6 8 20 14 33 7 12 10 28 6 34 -5 7 -3 8 6 3 10 -6 12 -4 7 8 -4 10 -2 17 4 17
6 0 8 7 5 16 -3 8 -2 12 4 9 9 -6 11 1 15 45 0 9 9 27 18 40 10 14 20 42 24
63 3 20 8 37 12 37 3 0 7 19 7 42 1 23 7 44 13 46 6 2 11 14 11 26 0 27 54
142 69 147 6 2 12 13 14 24 1 11 6 26 10 33 5 6 5 12 0 12 -4 0 -2 4 5 9 12 7
18 33 21 89 0 12 5 22 11 22 5 0 7 -7 4 -15 -4 -8 -4 -15 -1 -15 10 0 58 151
51 162 -4 6 -3 8 3 5 10 -6 45 71 48 105 1 9 6 22 11 30 18 23 54 120 48 129
-3 5 0 9 6 9 7 0 9 8 4 23 -3 12 -3 19 2 14 7 -7 52 86 60 126 2 10 7 24 12
31 10 12 37 85 37 101 0 6 4 13 8 16 5 3 9 12 11 20 1 8 8 24 14 37 7 12 10
27 7 32 -3 6 -2 10 3 10 13 0 62 138 56 158 -4 12 -3 13 3 4 6 -8 28 35 67
135 31 82 61 156 66 165 29 53 47 117 36 129 -8 9 -7 11 6 6 13 -4 20 5 32 40
9 25 13 50 9 56 -3 5 -1 7 5 3 6 -4 13 7 17 26 4 18 11 35 14 38 15 11 51 111
45 122 -4 7 -3 8 4 4 11 -7 13 -3 16 37 1 6 6 15 11 19 6 4 10 11 10 15 1 4 9
23 18 40 10 18 18 35 18 38 0 2 14 35 31 72 17 38 31 78 30 91 -1 13 4 22 13
22 8 0 15 5 15 10 0 6 20 54 45 107 25 53 44 101 42 107 -5 14 20 66 32 66 7
0 69 124 74 147 3 17 41 53 48 46 8 -9 49 -278 49 -323 0 -16 3 -30 8 -30 4 0
8 -21 9 -47 0 -27 4 -73 7 -103 3 -30 6 -64 7 -75 6 -88 51 -590 60 -665 7
-52 12 -119 11 -147 0 -29 4 -53 9 -53 6 0 7 -14 4 -32 -3 -18 1 -91 10 -163
9 -71 18 -159 20 -195 3 -36 12 -114 20 -175 8 -60 17 -130 19 -154 5 -50 7
-64 36 -245 12 -72 24 -134 26 -138 3 -5 7 -27 10 -51 2 -23 11 -47 19 -54 11
-7 13 -13 5 -18 -7 -4 -9 -19 -5 -38 15 -73 26 -107 35 -102 4 3 6 -4 3 -16
-6 -23 16 -127 29 -135 4 -3 8 -15 8 -26 0 -39 32 -138 43 -131 6 3 7 1 3 -6
-12 -18 55 -191 74 -192 10 0 11 -2 3 -6 -15 -6 21 -83 38 -83 6 0 8 -7 5 -16
-6 -14 18 -74 30 -74 3 0 2 5 -2 12 -4 7 -3 8 5 4 6 -4 9 -11 6 -16 -7 -12 6
-41 16 -34 5 3 6 -2 3 -10 -3 -9 -2 -16 4 -16 5 0 12 -9 15 -21 4 -13 10 -18
18 -13 8 5 10 3 4 -6 -5 -8 3 -21 21 -37 16 -13 23 -21 15 -17 -8 4 -2 -9 13
-29 16 -20 33 -34 39 -30 5 3 7 2 4 -4 -7 -11 40 -56 64 -61 8 -1 26 -16 40
-32 14 -17 30 -30 36 -30 6 0 16 -7 23 -15 8 -9 9 -15 2 -15 -6 0 -14 5 -17
10 -3 6 -11 10 -18 10 -6 0 -1 -7 11 -16 12 -8 26 -13 30 -10 5 3 21 -3 36
-13 18 -12 23 -20 15 -23 -9 -3 -8 -6 4 -11 9 -3 17 -2 17 4 0 6 5 7 10 4 6
-4 8 -10 5 -15 -3 -5 0 -12 6 -16 8 -5 9 -3 4 6 -8 13 17 9 60 -10 95 -41 124
-50 167 -50 40 0 49 -3 44 -15 -4 -12 2 -15 27 -14 30 1 30 1 7 8 -20 6 -13 9
34 14 37 5 63 4 70 -3 7 -7 -2 -10 -29 -10 -21 0 -35 -3 -32 -7 9 -9 177 17
177 27 0 5 -14 4 -32 -1 -23 -6 -29 -6 -21 2 6 6 32 14 57 16 26 3 49 10 52
14 3 5 12 9 20 9 8 0 12 -4 9 -10 -3 -5 -2 -10 4 -10 5 0 13 5 16 10 4 6 11 7
17 4 7 -4 8 -2 4 5 -4 7 2 15 16 20 13 5 25 5 28 1 3 -5 16 -2 30 6 l25 15
-25 -6 c-20 -4 -18 -2 10 14 41 23 54 26 44 9 -3 -7 5 -1 20 15 26 26 54 38
41 16 -4 -6 2 -5 13 2 12 7 18 17 16 21 -3 4 1 8 8 8 7 0 19 9 26 20 7 11 19
20 28 20 9 0 12 -5 8 -12 -4 -7 -3 -8 5 -4 6 4 9 11 6 16 -3 5 10 20 28 34 36
28 53 33 41 14 -4 -7 -3 -8 5 -4 6 4 9 11 6 15 -8 13 33 44 49 38 9 -4 18 -1
22 5 4 7 3 8 -4 4 -7 -4 -12 -2 -12 3 0 6 7 11 15 11 8 0 22 11 31 25 9 14 21
25 26 25 6 0 5 -8 -3 -17 -11 -16 -11 -16 1 -5 8 7 15 18 15 25 1 7 7 11 14 9
7 -1 15 7 18 18 3 11 10 20 15 20 5 0 7 4 3 9 -3 6 3 15 14 20 31 17 36 13 15
-11 -10 -13 8 2 40 32 31 30 64 70 71 87 8 18 19 33 26 33 8 0 8 -5 -2 -17 -7
-10 1 -5 19 11 18 17 32 38 32 47 0 10 7 24 15 32 8 8 11 19 7 23 -4 5 -3 6 2
2 5 -4 18 -3 30 3 14 7 10 0 -11 -21 -18 -17 -33 -34 -33 -37 0 -13 62 53 71
75 5 13 13 21 17 18 5 -3 33 19 62 49 30 30 51 55 47 55 -4 0 -23 -17 -42 -37
-19 -20 -35 -32 -35 -25 0 15 49 61 77 72 12 5 28 22 35 37 8 15 19 27 25 26
5 -1 23 12 39 30 25 27 25 29 4 12 -14 -11 -28 -24 -32 -30 -4 -5 -8 -6 -8 -2
0 12 82 107 92 107 5 0 6 -6 2 -12 -4 -7 5 -2 19 11 15 14 24 27 21 30 -3 3
-9 -1 -13 -8 -6 -9 -11 -10 -15 -2 -5 7 4 14 23 17 16 4 32 13 36 22 4 12 3
13 -10 2 -21 -17 -19 2 3 21 9 9 43 46 75 82 32 37 62 65 67 62 11 -7 50 43
50 65 0 9 10 25 22 36 12 10 18 13 14 7 -10 -19 -1 -16 15 4 10 11 10 14 2 9
-7 -4 -13 -2 -13 3 0 6 5 11 11 11 5 0 7 6 3 13 -5 9 -4 9 6 0 10 -9 18 -5 36
17 13 15 24 36 24 45 0 21 59 97 70 90 4 -3 14 3 21 13 13 15 12 16 -3 3 -10
-7 -18 -9 -18 -4 0 13 41 50 47 43 3 -3 17 11 31 30 l25 35 -32 -33 c-19 -20
-31 -27 -31 -18 0 17 50 67 61 61 4 -3 13 3 20 13 13 15 12 16 -3 3 -10 -7
-18 -9 -18 -4 0 14 35 44 43 38 4 -3 5 -2 2 1 -7 10 15 45 25 39 5 -3 12 0 16
6 4 8 3 9 -4 5 -18 -11 -15 -2 19 53 30 48 55 69 43 36 -4 -8 -9 -15 -13 -15
-4 0 -13 -11 -19 -25 -17 -36 -10 -31 27 20 18 25 27 45 22 45 -6 0 -11 5 -11
10 0 6 7 10 16 8 9 -2 23 8 31 22 13 21 13 22 0 8 -19 -24 -26 -23 -20 2 3 11
12 20 19 20 8 0 14 6 14 13 0 17 44 59 53 51 3 -3 3 5 0 18 -4 18 -2 20 6 8 9
-12 11 -12 17 3 3 9 4 23 1 31 -3 8 1 20 10 28 14 11 15 10 8 -12 -7 -24 -7
-24 8 -5 10 13 12 22 5 26 -15 10 10 52 27 45 8 -3 17 0 21 6 4 7 3 8 -4 4
-17 -10 -15 7 4 30 15 19 16 19 10 -1 -4 -15 0 -12 18 9 14 17 23 33 20 38 -3
4 -1 8 5 8 6 0 8 7 5 15 -4 8 8 27 28 47 18 17 25 26 16 19 -26 -19 -22 -9 20
56 21 32 43 69 50 83 7 14 22 36 33 50 12 14 17 19 13 11 -4 -9 -3 -12 3 -8 6
4 8 17 6 30 -3 14 3 29 16 41 12 11 21 15 21 11 0 -5 6 0 14 11 9 12 11 23 5
30 -10 12 19 44 30 34 3 -3 7 4 8 15 l3 20 -9 -20 c-5 -11 -10 -15 -10 -10 -2
20 74 160 84 157 6 -2 12 12 15 30 3 18 11 32 17 31 7 -2 10 4 7 12 -4 8 1 17
9 21 9 3 13 13 10 24 -3 10 2 29 11 42 9 12 16 17 16 11 0 -7 -4 -15 -10 -18
-5 -3 -10 -14 -10 -23 1 -29 29 30 30 61 0 16 4 26 9 23 4 -3 13 6 20 20 13
30 14 45 1 24 -8 -13 -10 -12 -10 3 0 21 29 69 39 63 4 -3 7 8 6 22 0 18 5 26
14 24 12 -3 12 0 2 12 -11 13 -11 20 3 41 9 13 16 33 16 45 0 11 4 20 9 20 5
0 11 9 14 21 3 12 10 18 16 14 6 -3 11 -1 11 4 0 6 -4 11 -9 11 -5 0 -7 10 -3
22 5 21 6 21 13 2 6 -14 8 -8 8 21 1 26 4 35 10 27 6 -10 10 -9 14 7 3 12 1
19 -4 16 -11 -8 0 57 13 70 6 6 7 -1 3 -20 -5 -26 -4 -27 4 -7 6 12 8 29 4 38
-6 15 10 82 28 116 5 10 9 27 9 38 0 11 4 28 9 38 6 9 13 38 16 65 6 45 18 61
28 35 3 -7 5 3 4 22 0 63 6 121 15 126 4 3 8 23 8 46 0 28 4 39 13 35 9 -3 11
13 9 69 -2 50 0 74 8 74 7 0 9 -18 6 -52 -5 -46 -4 -48 3 -14 5 22 7 75 5 119
-2 53 1 86 8 95 7 8 12 29 11 46 -2 29 -2 30 6 6 9 -24 9 -23 10 8 1 19 -3 31
-8 27 -14 -8 -13 146 1 162 15 18 6 261 -11 292 -8 14 -9 21 -2 17 6 -4 11 -2
11 3 0 6 -4 11 -9 11 -5 0 -8 12 -6 28 2 15 4 36 5 47 2 17 3 16 10 -5 7 -22
8 -21 9 13 1 24 -3 36 -9 32 -7 -4 -9 3 -6 19 2 14 -1 27 -7 29 -8 2 -12 30
-12 79 0 60 -3 74 -12 66 -10 -8 -13 0 -13 34 0 24 -4 48 -9 54 -9 9 -20 71
-24 131 -1 17 -6 29 -10 26 -4 -2 -5 8 -2 24 3 15 2 22 -1 15 -7 -15 -54 71
-54 100 0 10 -3 17 -7 16 -10 -4 -13 6 -13 40 0 21 2 24 10 12 5 -8 10 -10 10
-5 0 15 -13 31 -29 36 -17 6 -41 76 -34 97 5 11 3 13 -7 7 -10 -6 -12 -4 -7 8
4 10 2 16 -6 14 -7 -1 -12 8 -11 20 0 13 -2 21 -4 18 -5 -5 -61 76 -60 89 0 5
-5 12 -10 15 -5 3 -20 26 -32 51 -20 40 -21 43 -4 30 18 -14 18 -14 5 3 -7 9
-20 17 -28 17 -8 0 -12 4 -8 9 3 5 1 12 -5 16 -6 4 -7 12 -4 18 4 7 4 9 0 6
-8 -8 -37 19 -85 79 -18 23 -26 40 -18 36 8 -3 20 -16 27 -30 7 -13 17 -24 23
-24 5 0 -6 18 -23 40 -17 22 -36 38 -40 35 -10 -6 -60 41 -60 57 0 7 9 2 20
-10 12 -12 24 -22 27 -22 4 0 -11 18 -32 40 -41 42 -57 53 -34 23 7 -10 1 -7
-14 6 -15 14 -27 34 -27 45 0 17 -2 18 -10 6 -9 -13 -14 -7 -11 13 0 4 -2 6
-6 5 -5 -2 -9 2 -11 7 -4 15 -75 85 -85 85 -5 0 11 -18 34 -40 24 -22 39 -40
33 -40 -6 0 -25 16 -44 35 -18 19 -37 32 -42 29 -5 -3 -7 -1 -6 5 2 5 -6 17
-17 26 -19 15 -19 16 5 4 22 -11 24 -11 12 4 -7 9 -27 19 -43 22 -17 4 -33 13
-36 21 -3 8 -9 11 -14 8 -5 -3 -6 1 -3 9 3 8 0 18 -7 23 -8 4 -10 3 -5 -4 9
-15 5 -15 -29 -2 -17 7 -25 16 -22 24 5 13 -31 46 -50 46 -4 0 6 -9 22 -20 17
-11 26 -20 22 -20 -14 0 -68 41 -63 48 2 4 -6 8 -18 8 -28 2 -108 53 -101 65
3 4 -5 13 -17 20 -22 12 -22 11 -8 -7 14 -18 14 -18 -5 -4 -11 7 -26 21 -32
29 -8 9 -13 10 -13 3 0 -6 -7 -9 -16 -5 -11 4 -12 8 -4 13 8 5 7 9 -4 13 -9 4
-16 2 -16 -2 0 -16 -62 13 -77 37 -9 12 -23 22 -32 21 -12 0 -12 -2 4 -10 18
-8 17 -8 -5 -6 -14 1 -24 7 -23 13 1 6 -8 9 -21 7 -13 -3 -28 2 -35 11 -16 19
-8 20 22 5 21 -10 21 -10 2 6 -11 8 -26 13 -34 10 -14 -6 -107 21 -126 35 -5
5 -21 10 -35 12 -14 2 -24 8 -23 14 1 7 -8 9 -22 6 -18 -3 -25 0 -25 12 0 9
-5 16 -11 16 -5 0 -7 -5 -3 -11 10 -16 -44 -3 -76 19 -14 9 -34 17 -45 18 -64
2 -70 4 -55 14 13 8 12 10 -2 10 -10 0 -18 -5 -18 -11 0 -5 -5 -7 -10 -4 -6 4
-8 11 -5 16 3 5 0 6 -8 3 -8 -3 -18 -1 -22 5 -3 6 -14 11 -23 11 -15 0 -15 -2
-2 -10 12 -8 11 -10 -8 -10 -12 0 -30 9 -39 20 -10 11 -24 20 -33 20 -13 0
-13 -2 0 -11 12 -9 12 -10 -3 -5 -10 3 -26 6 -35 6 -14 0 -15 2 -3 9 10 6 0 8
-30 5 -33 -4 -40 -3 -29 5 13 9 13 11 -2 11 -10 0 -18 -5 -18 -11 0 -8 -13 -9
-42 -4 -24 4 -65 9 -93 11 -27 3 -61 9 -75 15 -36 14 -123 19 -450 28 -157 5
-293 11 -302 16 -11 4 -18 3 -18 -4z m-162 -818 c-15 -2 -42 -2 -60 0 -18 2
-6 4 27 4 33 0 48 -2 33 -4z m2012 -636 c0 -6 -9 -2 -20 8 -11 10 -20 23 -20
28 0 6 9 2 20 -8 11 -10 20 -23 20 -28z m-4410 -61 c0 -2 -7 -7 -16 -10 -8 -3
-12 -2 -9 4 6 10 25 14 25 6z m4500 -56 c6 -11 7 -20 3 -20 -5 0 -14 9 -21 20
-7 11 -8 20 -2 20 5 0 14 -9 20 -20z m-5660 -34 c0 -3 -4 -8 -10 -11 -5 -3
-10 -1 -10 4 0 6 5 11 10 11 6 0 10 -2 10 -4z m-270 -236 c0 -5 -10 -15 -22
-21 -23 -12 -23 -12 -4 10 21 23 26 26 26 11z m515 -249 c3 -5 2 -12 -3 -15
-5 -3 -9 1 -9 9 0 17 3 19 12 6z m-905 -796 c0 -2 -18 -23 -40 -46 -22 -23
-40 -39 -40 -35 0 7 71 86 77 86 2 0 3 -2 3 -5z m-187 -203 c-20 -21 -28 -20
-20 3 4 8 13 15 22 15 13 0 12 -3 -2 -18z m-583 -182 c0 -5 -7 -10 -15 -10
-13 0 -18 -9 -17 -30 0 -3 -6 -11 -14 -18 -20 -18 -17 -3 6 36 19 31 40 43 40
22z m-170 -260 c0 -5 -5 -10 -11 -10 -5 0 -7 5 -4 10 3 6 8 10 11 10 2 0 4 -4
4 -10z m-266 -865 c-9 -14 -19 -24 -21 -21 -7 7 16 46 28 46 5 0 2 -11 -7 -25z
m4303 -472 c-3 -10 -5 -4 -5 12 0 17 2 24 5 18 2 -7 2 -21 0 -30z m2293 -98
c0 -8 -4 -15 -10 -15 -5 0 -7 7 -4 15 4 8 8 15 10 15 2 0 4 -7 4 -15z m-3530
-669 c0 -3 -4 -8 -10 -11 -5 -3 -10 -1 -10 4 0 6 5 11 10 11 6 0 10 -2 10 -4z
m4211 -157 c-12 -13 -21 -19 -21 -14 0 11 32 46 38 41 2 -3 -5 -15 -17 -27z
m-1431 -117 c0 -13 -41 -54 -48 -48 -3 4 5 17 18 31 25 27 30 30 30 17z m1320
-21 c-12 -24 -30 -36 -30 -22 0 6 5 11 10 11 6 0 9 3 9 8 -3 15 1 22 11 22 7
0 7 -6 0 -19z m-1503 -186 c-4 -8 -11 -15 -17 -15 -6 0 -6 7 2 20 14 22 24 19
15 -5z m1023 -350 c-7 -9 -15 -13 -19 -10 -3 3 1 10 9 15 21 14 24 12 10 -5z
m-140 -140 c-7 -9 -15 -13 -17 -11 -7 7 7 26 19 26 6 0 6 -6 -2 -15z m-70 -68
c0 -2 -14 -16 -32 -33 -28 -25 -26 -17 7 23 9 11 25 17 25 10z"/>
<path d="M6603 8173 c15 -2 39 -2 55 0 15 2 2 4 -28 4 -30 0 -43 -2 -27 -4z"/>
<path d="M5923 8163 c9 -2 23 -2 30 0 6 3 -1 5 -18 5 -16 0 -22 -2 -12 -5z"/>
<path d="M6763 8163 c9 -2 23 -2 30 0 6 3 -1 5 -18 5 -16 0 -22 -2 -12 -5z"/>
<path d="M5833 8153 c9 -2 23 -2 30 0 6 3 -1 5 -18 5 -16 0 -22 -2 -12 -5z"/>
<path d="M6843 8153 c9 -2 23 -2 30 0 6 3 -1 5 -18 5 -16 0 -22 -2 -12 -5z"/>
<path d="M5738 8143 c7 -3 16 -2 19 1 4 3 -2 6 -13 5 -11 0 -14 -3 -6 -6z"/>
<path d="M6903 8143 c9 -2 25 -2 35 0 9 3 1 5 -18 5 -19 0 -27 -2 -17 -5z"/>
<path d="M5678 8133 c6 -2 18 -2 25 0 6 3 1 5 -13 5 -14 0 -19 -2 -12 -5z"/>
<path d="M6998 8133 c7 -3 16 -2 19 1 4 3 -2 6 -13 5 -11 0 -14 -3 -6 -6z"/>
<path d="M7060 8119 c0 -5 5 -7 10 -4 6 3 10 8 10 11 0 2 -4 4 -10 4 -5 0 -10
-5 -10 -11z"/>
<path d="M5548 8113 c6 -2 18 -2 25 0 6 3 1 5 -13 5 -14 0 -19 -2 -12 -5z"/>
<path d="M5355 8080 c-27 -7 -28 -8 -5 -8 14 0 34 3 45 8 25 11 2 11 -40 0z"/>
<path d="M7518 8018 c6 -6 18 -8 28 -6 14 3 12 5 -9 10 -19 3 -25 2 -19 -4z"/>
<path d="M5078 8013 c7 -3 16 -2 19 1 4 3 -2 6 -13 5 -11 0 -14 -3 -6 -6z"/>
<path d="M5008 7993 c7 -3 16 -2 19 1 4 3 -2 6 -13 5 -11 0 -14 -3 -6 -6z"/>
<path d="M7739 7945 c18 -8 38 -15 45 -15 6 1 -4 7 -23 15 -18 8 -38 15 -45
15 -6 -1 4 -7 23 -15z"/>
<path d="M4585 7865 c-16 -8 -23 -14 -15 -14 8 0 26 6 40 14 32 18 15 18 -25
0z"/>
<path d="M7970 7845 c33 -19 49 -19 24 0 -10 8 -26 14 -34 14 -9 0 -4 -6 10
-14z"/>
<path d="M4440 7810 c-8 -5 -10 -10 -5 -10 6 0 17 5 25 10 8 5 11 10 5 10 -5
0 -17 -5 -25 -10z"/>
<path d="M4275 7745 c-16 -8 -23 -14 -15 -14 8 0 26 6 40 14 32 18 15 18 -25
0z"/>
<path d="M8170 7741 c0 -5 7 -12 16 -15 14 -5 15 -4 4 9 -14 17 -20 19 -20 6z"/>
<path d="M4061 7651 c-8 -5 -9 -11 -3 -15 5 -3 12 1 16 9 6 17 6 18 -13 6z"/>
<path d="M4020 7630 c-13 -8 -12 -10 3 -10 9 0 17 5 17 10 0 12 -1 12 -20 0z"/>
<path d="M8410 7580 c0 -5 5 -10 11 -10 5 0 7 5 4 10 -3 6 -8 10 -11 10 -2 0
-4 -4 -4 -10z"/>
<path d="M3830 7540 c-8 -5 -10 -10 -5 -10 6 0 17 5 25 10 8 5 11 10 5 10 -5
0 -17 -5 -25 -10z"/>
<path d="M3555 7390 c-16 -11 -25 -20 -19 -20 11 0 64 39 54 40 -3 0 -18 -9
-35 -20z"/>
<path d="M6268 7343 c18 -2 45 -2 60 0 15 2 0 4 -33 4 -33 0 -45 -2 -27 -4z"/>
<path d="M5768 7333 c7 -3 16 -2 19 1 4 3 -2 6 -13 5 -11 0 -14 -3 -6 -6z"/>
<path d="M5643 7323 c9 -2 23 -2 30 0 6 3 -1 5 -18 5 -16 0 -22 -2 -12 -5z"/>
<path d="M6543 7323 c9 -2 25 -2 35 0 9 3 1 5 -18 5 -19 0 -27 -2 -17 -5z"/>
<path d="M5533 7313 c9 -2 25 -2 35 0 9 3 1 5 -18 5 -19 0 -27 -2 -17 -5z"/>
<path d="M5473 7303 c9 -2 23 -2 30 0 6 3 -1 5 -18 5 -16 0 -22 -2 -12 -5z"/>
<path d="M6698 7303 c7 -3 16 -2 19 1 4 3 -2 6 -13 5 -11 0 -14 -3 -6 -6z"/>
<path d="M5348 7283 c6 -2 18 -2 25 0 6 3 1 5 -13 5 -14 0 -19 -2 -12 -5z"/>
<path d="M6828 7283 c7 -3 16 -2 19 1 4 3 -2 6 -13 5 -11 0 -14 -3 -6 -6z"/>
<path d="M5288 7273 c7 -3 16 -2 19 1 4 3 -2 6 -13 5 -11 0 -14 -3 -6 -6z"/>
<path d="M5248 7263 c7 -3 16 -2 19 1 4 3 -2 6 -13 5 -11 0 -14 -3 -6 -6z"/>
<path d="M6921 7266 c12 -10 60 -16 54 -6 -3 5 -18 10 -32 10 -15 0 -24 -2
-22 -4z"/>
<path d="M7008 7243 c6 -2 18 -2 25 0 6 3 1 5 -13 5 -14 0 -19 -2 -12 -5z"/>
<path d="M5026 7221 c-3 -4 6 -6 19 -3 14 2 25 6 25 8 0 8 -39 4 -44 -5z"/>
<path d="M4865 7180 c-7 -12 2 -12 30 0 19 8 19 9 -2 9 -12 1 -25 -3 -28 -9z"/>
<path d="M3160 7150 c-9 -6 -10 -10 -3 -10 6 0 15 5 18 10 8 12 4 12 -15 0z"/>
<path d="M4748 7143 c7 -3 16 -2 19 1 4 3 -2 6 -13 5 -11 0 -14 -3 -6 -6z"/>
<path d="M7635 6990 c3 -5 8 -10 11 -10 2 0 4 5 4 10 0 6 -5 10 -11 10 -5 0
-7 -4 -4 -10z"/>
<path d="M7737 6919 c7 -7 15 -10 18 -7 3 3 -2 9 -12 12 -14 6 -15 5 -6 -5z"/>
<path d="M4026 6881 c-4 -5 3 -7 14 -4 23 6 26 13 6 13 -8 0 -17 -4 -20 -9z"/>
<path d="M2657 6793 c-4 -3 -7 -11 -7 -17 0 -6 5 -5 12 2 6 6 9 14 7 17 -3 3
-9 2 -12 -2z"/>
<path d="M7890 6786 c0 -2 8 -10 18 -17 15 -13 16 -12 3 4 -13 16 -21 21 -21
13z"/>
<path d="M9061 6765 c0 -5 6 -21 14 -35 8 -14 14 -20 14 -15 0 6 -6 21 -14 35
-8 14 -14 21 -14 15z"/>
<path d="M2454 6629 c-19 -22 -19 -22 4 -8 12 8 22 17 22 21 0 12 -6 9 -26
-13z"/>
<path d="M9122 6615 c0 -5 6 -26 13 -45 7 -19 14 -28 14 -20 0 8 -6 29 -14 45
-7 17 -13 26 -13 20z"/>
<path d="M3385 6553 c-4 -11 0 -11 18 -2 31 16 32 18 8 16 -11 -1 -23 -7 -26
-14z"/>
<path d="M2325 6520 c-16 -17 -25 -30 -21 -30 11 0 61 49 55 55 -3 2 -18 -9
-34 -25z"/>
<path d="M8106 6497 c3 -10 9 -15 12 -12 3 3 0 11 -7 18 -10 9 -11 8 -5 -6z"/>
<path d="M9181 6424 c0 -11 3 -14 6 -6 3 7 2 16 -1 19 -3 4 -6 -2 -5 -13z"/>
<path d="M9201 6354 c0 -11 3 -14 6 -6 3 7 2 16 -1 19 -3 4 -6 -2 -5 -13z"/>
<path d="M8171 6355 c1 -19 18 -51 18 -35 0 8 -4 22 -9 30 -5 8 -9 11 -9 5z"/>
<path d="M8201 6274 c0 -11 3 -14 6 -6 3 7 2 16 -1 19 -3 4 -6 -2 -5 -13z"/>
<path d="M2049 6263 c-13 -16 -12 -17 4 -4 16 13 21 21 13 21 -2 0 -10 -8 -17
-17z"/>
<path d="M9222 6260 c0 -14 2 -19 5 -12 2 6 2 18 0 25 -3 6 -5 1 -5 -13z"/>
<path d="M8211 6234 c0 -11 3 -14 6 -6 3 7 2 16 -1 19 -3 4 -6 -2 -5 -13z"/>
<path d="M9241 6154 c0 -11 3 -14 6 -6 3 7 2 16 -1 19 -3 4 -6 -2 -5 -13z"/>
<path d="M8231 6144 c0 -11 3 -14 6 -6 3 7 2 16 -1 19 -3 4 -6 -2 -5 -13z"/>
<path d="M1795 6010 c-21 -22 -35 -40 -30 -40 9 0 81 80 73 80 -2 0 -22 -18
-43 -40z"/>
<path d="M8252 6015 c0 -16 2 -22 5 -12 2 9 2 23 0 30 -3 6 -5 -1 -5 -18z"/>
<path d="M8263 5895 c0 -27 2 -38 4 -22 2 15 2 37 0 50 -2 12 -4 0 -4 -28z"/>
<path d="M9273 5870 c0 -25 2 -35 4 -22 2 12 2 32 0 45 -2 12 -4 2 -4 -23z"/>
<path d="M1576 5763 c-6 -14 -5 -15 5 -6 7 7 10 15 7 18 -3 3 -9 -2 -12 -12z"/>
<path d="M8263 5720 c0 -30 2 -43 4 -27 2 15 2 39 0 55 -2 15 -4 2 -4 -28z"/>
<path d="M1539 5723 c-13 -16 -12 -17 4 -4 9 7 17 15 17 17 0 8 -8 3 -21 -13z"/>
<path d="M1495 5670 c-10 -11 -14 -20 -9 -20 5 0 15 9 22 20 7 11 11 20 9 20
-2 0 -12 -9 -22 -20z"/>
<path d="M1459 5623 c-13 -16 -12 -17 4 -4 9 7 17 15 17 17 0 8 -8 3 -21 -13z"/>
<path d="M8253 5585 c0 -22 2 -30 4 -17 2 12 2 30 0 40 -3 9 -5 -1 -4 -23z"/>
<path d="M9268 5543 c5 -59 10 -63 11 -10 1 26 -3 47 -7 47 -4 0 -6 -17 -4
-37z"/>
<path d="M8232 5450 c0 -14 2 -19 5 -12 2 6 2 18 0 25 -3 6 -5 1 -5 -13z"/>
<path d="M1890 5417 c-8 -7 -24 -24 -35 -37 -12 -15 -4 -11 18 9 33 31 42 42
35 41 -2 0 -10 -6 -18 -13z"/>
<path d="M9252 5310 c0 -14 2 -19 5 -12 2 6 2 18 0 25 -3 6 -5 1 -5 -13z"/>
<path d="M9242 5235 c0 -16 2 -22 5 -12 2 9 2 23 0 30 -3 6 -5 -1 -5 -18z"/>
<path d="M8171 5174 c0 -11 3 -14 6 -6 3 7 2 16 -1 19 -3 4 -6 -2 -5 -13z"/>
<path d="M1075 5104 c-11 -17 -12 -25 -4 -22 6 2 16 14 20 26 11 29 5 28 -16
-4z"/>
<path d="M8091 4933 c0 -6 -4 -20 -7 -30 -5 -14 -4 -15 5 -7 7 7 11 20 8 30
-3 11 -5 14 -6 7z"/>
<path d="M9181 4904 c0 -11 3 -14 6 -6 3 7 2 16 -1 19 -3 4 -6 -2 -5 -13z"/>
<path d="M1359 4853 c-44 -50 -62 -73 -56 -73 3 0 24 23 47 50 44 53 51 69 9
23z"/>
<path d="M8026 4763 c-6 -14 -5 -15 5 -6 7 7 10 15 7 18 -3 3 -9 -2 -12 -12z"/>
<path d="M846 4743 c-6 -14 -5 -15 5 -6 7 7 10 15 7 18 -3 3 -9 -2 -12 -12z"/>
<path d="M9141 4744 c0 -11 3 -14 6 -6 3 7 2 16 -1 19 -3 4 -6 -2 -5 -13z"/>
<path d="M1256 4733 c-6 -14 -5 -15 5 -6 7 7 10 15 7 18 -3 3 -9 -2 -12 -12z"/>
<path d="M4506 4713 c-6 -14 -5 -15 5 -6 7 7 10 15 7 18 -3 3 -9 -2 -12 -12z"/>
<path d="M9121 4674 c0 -11 3 -14 6 -6 3 7 2 16 -1 19 -3 4 -6 -2 -5 -13z"/>
<path d="M7962 4615 c-17 -37 -14 -45 4 -12 9 16 14 31 11 33 -2 2 -9 -7 -15
-21z"/>
<path d="M9101 4618 c0 -9 -4 -25 -7 -35 -5 -17 -5 -17 6 0 6 10 9 25 7 35 -4
15 -5 15 -6 0z"/>
<path d="M5481 4604 c0 -11 3 -14 6 -6 3 7 2 16 -1 19 -3 4 -6 -2 -5 -13z"/>
<path d="M9081 4544 c0 -11 3 -14 6 -6 3 7 2 16 -1 19 -3 4 -6 -2 -5 -13z"/>
<path d="M1080 4500 c-12 -16 -19 -30 -16 -30 2 0 14 14 26 30 12 17 19 30 16
30 -2 0 -14 -13 -26 -30z"/>
<path d="M5501 4484 c0 -11 3 -14 6 -6 3 7 2 16 -1 19 -3 4 -6 -2 -5 -13z"/>
<path d="M7886 4453 c-6 -14 -5 -15 5 -6 7 7 10 15 7 18 -3 3 -9 -2 -12 -12z"/>
<path d="M675 4439 c-4 -6 -5 -12 -2 -15 2 -3 7 2 10 11 7 17 1 20 -8 4z"/>
<path d="M1012 4405 c-6 -14 -10 -25 -8 -25 2 0 11 11 20 25 9 14 13 25 8 25
-5 0 -14 -11 -20 -25z"/>
<path d="M653 4395 c-3 -9 -3 -18 -1 -21 3 -3 8 4 11 16 6 23 -1 27 -10 5z"/>
<path d="M5522 4360 c0 -14 2 -19 5 -12 2 6 2 18 0 25 -3 6 -5 1 -5 -13z"/>
<path d="M7816 4318 l-18 -33 21 25 c18 22 26 40 18 40 -1 0 -11 -15 -21 -32z"/>
<path d="M8979 4264 c-5 -15 -8 -29 -5 -31 2 -2 8 10 14 26 13 38 5 41 -9 5z"/>
<path d="M5542 4235 c0 -16 2 -22 5 -12 2 9 2 23 0 30 -3 6 -5 -1 -5 -18z"/>
<path d="M5572 4040 c0 -14 2 -19 5 -12 2 6 2 18 0 25 -3 6 -5 1 -5 -13z"/>
<path d="M7646 4023 c-6 -14 -5 -15 5 -6 7 7 10 15 7 18 -3 3 -9 -2 -12 -12z"/>
<path d="M5582 3980 c0 -19 2 -27 5 -17 2 9 2 25 0 35 -3 9 -5 1 -5 -18z"/>
<path d="M451 3864 c0 -11 3 -14 6 -6 3 7 2 16 -1 19 -3 4 -6 -2 -5 -13z"/>
<path d="M5602 3860 c0 -14 2 -19 5 -12 2 6 2 18 0 25 -3 6 -5 1 -5 -13z"/>
<path d="M5612 3790 c0 -14 2 -19 5 -12 2 6 2 18 0 25 -3 6 -5 1 -5 -13z"/>
<path d="M432 3780 c0 -14 2 -19 5 -12 2 6 2 18 0 25 -3 6 -5 1 -5 -13z"/>
<path d="M8765 3789 c-4 -6 -5 -12 -2 -15 2 -3 7 2 10 11 7 17 1 20 -8 4z"/>
<path d="M8730 3726 c-15 -39 -12 -46 6 -13 9 16 13 31 10 34 -3 3 -10 -6 -16
-21z"/>
<path d="M5641 3604 c0 -11 3 -14 6 -6 3 7 2 16 -1 19 -3 4 -6 -2 -5 -13z"/>
<path d="M7283 3449 c-17 -27 -28 -49 -25 -49 8 0 65 91 60 95 -2 2 -17 -19
-35 -46z"/>
<path d="M8567 3435 c-14 -25 -24 -45 -22 -45 7 0 57 81 53 85 -2 2 -16 -16
-31 -40z"/>
<path d="M5682 3370 c0 -14 2 -19 5 -12 2 6 2 18 0 25 -3 6 -5 1 -5 -13z"/>
<path d="M8526 3363 c-6 -14 -5 -15 5 -6 7 7 10 15 7 18 -3 3 -9 -2 -12 -12z"/>
<path d="M5731 3074 c0 -11 3 -14 6 -6 3 7 2 16 -1 19 -3 4 -6 -2 -5 -13z"/>
<path d="M5751 2964 c0 -11 3 -14 6 -6 3 7 2 16 -1 19 -3 4 -6 -2 -5 -13z"/>
<path d="M8251 2947 c-13 -21 -12 -21 5 -5 10 10 16 20 13 22 -3 3 -11 -5 -18
-17z"/>
<path d="M5841 2534 c0 -11 3 -14 6 -6 3 7 2 16 -1 19 -3 4 -6 -2 -5 -13z"/>
<path d="M7896 2473 c-6 -14 -5 -15 5 -6 7 7 10 15 7 18 -3 3 -9 -2 -12 -12z"/>
<path d="M5871 2404 c0 -11 3 -14 6 -6 3 7 2 16 -1 19 -3 4 -6 -2 -5 -13z"/>
<path d="M6432 2337 c-12 -13 -22 -27 -22 -31 0 -4 11 5 25 20 14 15 25 29 25
30 0 8 -7 3 -28 -19z"/>
<path d="M6299 2193 c-13 -16 -12 -17 4 -4 16 13 21 21 13 21 -2 0 -10 -8 -17
-17z"/>
<path d="M7620 2137 c-39 -43 -82 -102 -53 -72 50 52 105 116 102 119 -2 2
-24 -19 -49 -47z"/>
<path d="M3442 2100 c0 -14 2 -19 5 -12 2 6 2 18 0 25 -3 6 -5 1 -5 -13z"/>
<path d="M6650 1180 c-9 -6 -10 -10 -3 -10 6 0 15 5 18 10 8 12 4 12 -15 0z"/>
<path d="M5485 1150 c10 -11 20 -20 23 -20 3 0 -3 9 -13 20 -10 11 -20 20 -23
20 -3 0 3 -9 13 -20z"/>
<path d="M5700 1000 c8 -5 20 -10 25 -10 6 0 3 5 -5 10 -8 5 -19 10 -25 10 -5
0 -3 -5 5 -10z"/>
<path d="M5878 943 c6 -2 18 -2 25 0 6 3 1 5 -13 5 -14 0 -19 -2 -12 -5z"/>
</g>
</svg>
